<svg xmlns="http://www.w3.org/2000/svg"  viewBox="0 0 24 24" width="24px" height="24px"><path d="M18.734,3H5.266C4.063,3,3.132,4.054,3.281,5.248L4.84,17.716c0.098,0.781,0.644,1.432,1.397,1.664l5.176,1.591	c0.383,0.118,0.792,0.118,1.175,0l5.176-1.591c0.752-0.231,1.299-0.883,1.397-1.664l1.559-12.468C20.868,4.054,19.937,3,18.734,3z M17.017,8.65l-6.944,0l0.116,1.27h6.795l-0.549,7.097l-4.26,1.239l-4.573-1.422v-2.878h2.841v0.857l1.733,0.535l1.642-0.536	l0.12-2.125H7.646l-0.71-6.77h10.081V8.65z"/><path d="M17.017,8.65l-6.944,0l0.116,1.27h6.795l-0.549,7.097l-4.26,1.239l-4.573-1.422v-2.878h2.841v0.857	l1.733,0.535l1.642-0.536l0.12-2.125H7.646l-0.71-6.77h10.081V8.65z" opacity=".35"/></svg>